<?xml version="1.0" encoding="UTF-8" standalone="no"?>
<!-- Created with Inkscape (http://www.inkscape.org/) -->

<svg
   width="500"
   height="500"
   viewBox="0 0 132.29166 132.29166"
   version="1.1"
   id="svg1"
   inkscape:version="1.3.2 (091e20e, 2023-11-25)"
   sodipodi:docname="huecluelogo5.svg"
   xml:space="preserve"
   xmlns:inkscape="http://www.inkscape.org/namespaces/inkscape"
   xmlns:sodipodi="http://sodipodi.sourceforge.net/DTD/sodipodi-0.dtd"
   xmlns:xlink="http://www.w3.org/1999/xlink"
   xmlns="http://www.w3.org/2000/svg"
   xmlns:svg="http://www.w3.org/2000/svg"><sodipodi:namedview
     id="namedview1"
     pagecolor="#ffffff"
     bordercolor="#666666"
     borderopacity="1.0"
     inkscape:showpageshadow="2"
     inkscape:pageopacity="0.0"
     inkscape:pagecheckerboard="0"
     inkscape:deskcolor="#d1d1d1"
     inkscape:document-units="mm"
     inkscape:zoom="0.95525065"
     inkscape:cx="156.50343"
     inkscape:cy="237.11054"
     inkscape:window-width="1440"
     inkscape:window-height="774"
     inkscape:window-x="0"
     inkscape:window-y="25"
     inkscape:window-maximized="0"
     inkscape:current-layer="layer1" /><defs
     id="defs1"><linearGradient
       id="linearGradient48"
       inkscape:collect="always"><stop
         style="stop-color:#8000ff;stop-opacity:1;"
         offset="0.63719511"
         id="stop47" /><stop
         style="stop-color:#0000ff;stop-opacity:1;"
         offset="1"
         id="stop48" /></linearGradient><linearGradient
       id="linearGradient46"
       inkscape:collect="always"><stop
         style="stop-color:#ffff00;stop-opacity:1;"
         offset="0.63719511"
         id="stop45" /><stop
         style="stop-color:#00ff00;stop-opacity:1;"
         offset="1"
         id="stop46" /></linearGradient><linearGradient
       id="linearGradient42"
       inkscape:collect="always"><stop
         style="stop-color:#ff8000;stop-opacity:1;"
         offset="0.63719511"
         id="stop44" /><stop
         style="stop-color:#ff0000;stop-opacity:1;"
         offset="1"
         id="stop43" /></linearGradient><linearGradient
       id="linearGradient33"
       inkscape:collect="always"><stop
         style="stop-color:#ffffff;stop-opacity:1;"
         offset="0.47560975"
         id="stop31" /><stop
         style="stop-color:#000000;stop-opacity:0;"
         offset="1"
         id="stop32" /></linearGradient><radialGradient
       inkscape:collect="always"
       xlink:href="#linearGradient33"
       id="radialGradient30"
       cx="65.368866"
       cy="63.541355"
       fx="65.368866"
       fy="63.541355"
       r="50.737198"
       gradientTransform="matrix(1,0,0,0.95885672,0,2.6142951)"
       gradientUnits="userSpaceOnUse" /><radialGradient
       inkscape:collect="always"
       xlink:href="#linearGradient42"
       id="radialGradient44"
       cx="65.368866"
       cy="63.541355"
       fx="65.368866"
       fy="63.541355"
       r="50.737198"
       gradientTransform="matrix(1,0,0,0.95885677,0,2.6142968)"
       gradientUnits="userSpaceOnUse" /><radialGradient
       inkscape:collect="always"
       xlink:href="#linearGradient46"
       id="radialGradient44-5"
       cx="65.368866"
       cy="63.541355"
       fx="65.368866"
       fy="63.541355"
       r="50.737198"
       gradientTransform="matrix(1,0,0,0.95885677,-2e-6,2.614295)"
       gradientUnits="userSpaceOnUse" /><radialGradient
       inkscape:collect="always"
       xlink:href="#linearGradient48"
       id="radialGradient44-53"
       cx="65.368866"
       cy="63.541355"
       fx="65.368866"
       fy="63.541355"
       r="50.737198"
       gradientTransform="matrix(1,0,0,0.95885677,6e-6,2.614295)"
       gradientUnits="userSpaceOnUse" /></defs><g
     inkscape:label="Layer 1"
     inkscape:groupmode="layer"
     id="layer1"
     style="opacity:0.25"><path
       id="path3"
       style="display:inline;fill:url(#radialGradient44);stroke:none;stroke-width:0.264583px;stroke-linecap:butt;stroke-linejoin:miter;stroke-opacity:1"
       d="m 65.230127,14.893148 c -1.43507,0.01434 -3.013506,0.131086 -4.749064,0.390157 -4.938225,0.906769 -10.416801,2.565508 -14.412557,5.726265 -5.755684,3.375736 -9.731578,9.138783 -12.232845,15.222844 -1.5184,3.857376 -2.581815,8.122413 -2.591057,12.327929 -4.006249,2.192463 -7.5209,5.263438 -10.131681,9.061463 -3.47331,4.649744 -5.432699,10.599271 -6.481258,15.543237 2.437626,-3.919166 3.952025,-8.818238 7.418152,-11.909867 2.608012,-3.48802 5.851623,-6.374032 9.572025,-8.481136 0.08436,0.450285 0.178721,0.898611 0.294039,1.34307 0.950429,7.14741 4.460433,13.943766 9.667627,19.012276 2.050527,1.907111 4.336546,3.561508 6.779948,4.937167 -0.0278,2.25642 0.164355,4.518385 0.623218,6.748425 1.229061,8.153112 5.71855,15.768812 12.550138,20.464902 0.168462,0.12584 0.350168,0.23519 0.521932,0.35708 -1.844342,1.20167 -3.827133,2.19695 -5.899381,2.95124 -2.563083,0.94723 -5.021021,1.6063 -7.685319,1.89498 -3.216749,0.42577 -8.081638,-0.12394 -12.069031,-0.63149 2.492671,0.66311 7.269815,3.3294 16.526123,1.94769 4.08806,-0.75066 8.534412,-2.03159 12.215275,-4.2385 3.889584,2.09268 8.197703,3.40739 11.933639,4.19974 -3.145973,-1.95671 -6.908353,-3.33437 -9.875367,-5.58829 0.04476,-0.0348 0.09461,-0.0641 0.13901,-0.0992 5.755686,-3.37573 9.731577,-9.138772 12.232845,-15.222841 1.518346,-3.857225 2.581735,-8.12257 2.591056,-12.32793 4.006252,-2.192462 7.520889,-5.263438 10.131682,-9.061463 3.320467,-4.445124 5.247119,-10.068839 6.327262,-14.875577 0.613154,0.341699 1.220971,0.693633 1.818492,1.062467 5.63028,3.204927 9.85246,8.525452 12.05818,14.585156 0.94723,2.563078 1.6063,5.021539 1.89498,7.685836 0.42576,3.216747 -0.12394,8.081118 -0.63149,12.068514 0.66311,-2.492667 3.32939,-7.269295 1.94768,-16.525606 -0.90677,-4.938225 -2.5655,-10.416801 -5.72626,-14.412557 -3.37574,-5.755684 -9.13878,-9.731578 -15.222845,-12.232845 -5.579904,-2.196448 -12.013242,-3.443168 -17.884696,-1.91978 -4.164732,0.553807 -8.207331,1.981826 -11.861292,4.103109 -7.062789,-3.967795 -15.457171,-5.570808 -23.441463,-3.927926 -1.630935,0.24586 -3.238599,0.627613 -4.807459,1.127063 0.1127,-0.576391 0.248365,-1.152108 0.422197,-1.726509 0.863269,-4.968505 2.837954,-9.647594 5.474601,-13.919047 3.204927,-5.630275 8.525969,-9.852978 14.585673,-12.058696 2.563078,-0.947229 5.021022,-1.606295 7.685319,-1.894974 3.216747,-0.42577 8.081635,0.123936 12.069031,0.631486 -2.025292,-0.538777 -5.558421,-2.399973 -11.777059,-2.337842 z M 47.584176,48.928796 c 4.058698,0.11478 8.098646,0.953061 11.871626,2.460315 0.429017,0.188611 0.838984,0.388565 1.242302,0.592729 -0.990851,0.806143 -1.938357,1.666435 -2.829802,2.582271 -4.657746,5.008013 -7.836438,11.404356 -9.013403,18.132227 -1.553709,-1.165487 -2.940926,-2.44987 -4.287077,-3.798735 -2.074548,-2.589351 -4.962363,-5.065474 -5.833752,-8.374166 -1.246487,-3.186043 -2.177513,-6.543505 -2.300118,-9.936344 1.255246,-0.43908 2.548021,-0.80077 3.877799,-1.071769 2.395012,-0.463981 4.837206,-0.655395 7.272425,-0.586528 z m 33.844445,0.473357 c 1.699196,0.02196 3.403717,0.258619 5.096847,0.771012 4.206832,0.73093 8.20319,2.264851 11.923303,4.316532 -2.245044,3.816029 -3.784371,8.392041 -7.086389,11.337293 -2.608168,3.48821 -5.851364,6.375036 -9.572026,8.482169 -0.08438,-0.450454 -0.178678,-0.898963 -0.294038,-1.343587 -0.950424,-7.147408 -4.460435,-13.943766 -9.667627,-19.012276 -0.726647,-0.675824 -1.491387,-1.309316 -2.273247,-1.92133 0.301409,-0.117424 0.603056,-0.234136 0.918807,-0.317293 3.50447,-1.371066 7.21614,-2.360829 10.95437,-2.31252 z m -16.233117,5.484419 c 1.297806,1.03027 2.491209,2.13799 3.648873,3.29799 2.074549,2.589352 4.962371,5.065991 5.833752,8.374683 1.246556,3.186205 2.17759,6.543331 2.300118,9.936344 -1.255246,0.43908 -2.548021,0.80077 -3.877799,1.071769 -6.386708,1.237282 -13.107288,0.537821 -19.144052,-1.873787 -0.280535,-0.123333 -0.542994,-0.257506 -0.812353,-0.387573 0.375626,-2.864277 1.088067,-5.685537 2.160075,-8.368998 1.731097,-3.937577 4.141118,-6.739067 6.795967,-9.388575 1.026284,-0.822242 2.045815,-1.76029 3.095419,-2.661853 z M 52.854138,80.194071 c 6.00157,2.364598 12.619356,3.125786 18.980237,1.816944 1.630935,-0.24586 3.238599,-0.627612 4.807458,-1.127063 -0.1127,0.576391 -0.248364,1.152108 -0.422196,1.726509 -0.863263,4.968509 -2.837959,9.647579 -5.474601,13.919047 -1.601549,2.813533 -3.731799,5.275662 -6.218225,7.310152 C 58.879973,99.394 54.891319,93.250044 53.43033,86.081051 c -0.376002,-1.94088 -0.551596,-3.913016 -0.576192,-5.88698 z"
       sodipodi:insensitive="true" /><path
       id="path3-5"
       style="display:inline;fill:url(#radialGradient44-53);stroke:none;stroke-width:0.264583px;stroke-linecap:butt;stroke-linejoin:miter;stroke-opacity:1"
       d="m 81.367643,44.244845 c -1.515982,0.06303 -3.019203,0.270793 -4.487064,0.651639 -2.753268,0.366117 -5.450156,1.121381 -8.019666,2.199349 a 41.605324,39.61055 0 0 0 -3.755326,7.868254 c 0.03047,-0.02627 0.05939,-0.0513 0.08992,-0.07751 1.297808,1.030269 2.491214,2.137991 3.648873,3.29799 2.074548,2.58935 4.962373,5.065994 5.833752,8.374683 1.246549,3.186202 2.177598,6.543335 2.300118,9.936344 -1.255239,0.43908 -2.548031,0.800771 -3.877799,1.071769 -2.802836,0.542987 -5.668786,0.691501 -8.514209,0.507463 a 41.605324,39.61055 0 0 0 1.724959,4.543909 c 1.848454,-0.04548 3.696418,-0.231833 5.523177,-0.607715 1.630938,-0.24586 3.2386,-0.627613 4.807458,-1.127063 -0.112699,0.57639 -0.248356,1.152109 -0.422196,1.726509 -0.617539,3.554255 -1.811344,6.956707 -3.401859,10.171473 a 41.605324,39.61055 0 0 0 3.852478,3.770829 c 1.122807,-1.825103 2.100083,-3.741502 2.906282,-5.702494 1.518339,-3.857222 2.581736,-8.122574 2.591056,-12.32793 4.006246,-2.19246 7.520894,-5.263441 10.131682,-9.061463 3.320466,-4.445119 5.247113,-10.068844 6.327262,-14.875577 0.613149,0.341698 1.220972,0.693633 1.818489,1.062467 5.63028,3.204924 9.85246,8.525458 12.05818,14.585156 0.94723,2.563076 1.6063,5.021542 1.89498,7.685836 0.42575,3.216744 -0.12394,8.081122 -0.63149,12.068514 0.66311,-2.492664 3.32939,-7.269304 1.94768,-16.525606 -0.90677,-4.93822 -2.5655,-10.416805 -5.72626,-14.412557 -3.37574,-5.755678 -9.13878,-9.731581 -15.222842,-12.232845 -4.184921,-1.647335 -8.849684,-2.7605 -13.397632,-2.571419 z m 0.06098,5.157308 c 1.699189,0.02196 3.403719,0.258619 5.096847,0.771012 4.206826,0.730929 8.203197,2.264853 11.923303,4.316532 -2.245048,3.816025 -3.784372,8.392044 -7.086389,11.337293 -2.608167,3.488206 -5.851359,6.375038 -9.572026,8.482169 -0.0844,-0.450453 -0.178679,-0.898963 -0.294038,-1.343587 -0.95043,-7.147401 -4.460443,-13.943771 -9.667627,-19.012276 -0.72665,-0.675823 -1.491387,-1.309316 -2.273247,-1.92133 0.30141,-0.117424 0.603058,-0.234136 0.918807,-0.317293 3.504467,-1.371065 7.216144,-2.360829 10.95437,-2.31252 z"
       sodipodi:insensitive="true" /><path
       id="path3-7"
       style="display:inline;fill:url(#radialGradient44-5);stroke:none;stroke-width:0.264583px;stroke-linecap:butt;stroke-linejoin:miter;stroke-opacity:1"
       d="m 54.339836,69.756982 a 33.183594,28.10499 0 0 0 -5.071009,0.999939 c -0.15091,0.643886 -0.300034,1.288364 -0.413928,1.939417 -0.554927,-0.416268 -1.068819,-0.863291 -1.586983,-1.307414 a 33.183594,28.10499 0 0 0 -5.232239,2.135787 c 1.934804,1.737064 4.059085,3.264549 6.327779,4.541842 -0.0278,2.256417 0.164358,4.518387 0.623218,6.748425 1.229059,8.153104 5.718555,15.768812 12.550138,20.464902 0.16846,0.12584 0.350172,0.23519 0.521932,0.35708 -1.844338,1.20167 -3.827133,2.19695 -5.899381,2.95124 -2.563078,0.94723 -5.021022,1.6063 -7.685319,1.89498 -3.216747,0.42577 -8.081635,-0.12394 -12.069031,-0.63149 2.492668,0.66311 7.269822,3.3294 16.526123,1.94769 4.088056,-0.75066 8.534419,-2.0316 12.215275,-4.2385 3.889586,2.09267 8.197702,3.40739 11.933639,4.19974 -3.145967,-1.95671 -6.90835,-3.33437 -9.875367,-5.58829 0.0448,-0.0348 0.0946,-0.0641 0.13901,-0.0992 5.755684,-3.37572 9.731578,-9.138779 12.232845,-15.222841 1.518339,-3.857222 2.581736,-8.122574 2.591056,-12.32793 0.276409,-0.151267 0.544379,-0.316876 0.815971,-0.476457 a 33.183594,28.10499 0 0 0 -6.284371,-4.307747 c 0.143111,0.915133 0.245715,1.834288 0.279053,2.757454 -1.255249,0.43908 -2.548021,0.800771 -3.877799,1.071769 -6.386704,1.237281 -13.107298,0.537819 -19.144052,-1.873787 -0.280539,-0.123333 -0.542993,-0.257506 -0.812353,-0.387573 0.246368,-1.878618 0.653227,-3.73415 1.195793,-5.549016 z m -1.485698,10.437089 c 6.001564,2.364596 12.619363,3.125785 18.980237,1.816944 1.630938,-0.24586 3.2386,-0.627613 4.807458,-1.127063 -0.112699,0.57639 -0.248366,1.152109 -0.422196,1.726509 -0.863269,4.968504 -2.837964,9.647584 -5.474601,13.919047 -1.601549,2.813531 -3.731798,5.275662 -6.218225,7.310152 C 58.879976,99.393999 54.891319,93.250036 53.43033,86.081051 53.054331,84.140173 52.878728,82.168033 52.854138,80.194071 Z"
       sodipodi:insensitive="true" /><path
       id="path3-4"
       style="display:inline;fill:url(#radialGradient30);stroke:none;stroke-width:0.264583px;stroke-linecap:butt;stroke-linejoin:miter;stroke-opacity:1"
       d="m 65.230127,14.893148 c -1.43507,0.01434 -3.013506,0.131086 -4.749064,0.390157 -4.938225,0.906769 -10.416801,2.565508 -14.412557,5.726265 -5.755684,3.375736 -9.731578,9.138783 -12.232845,15.222844 -1.5184,3.857376 -2.581815,8.122413 -2.591057,12.327929 -4.006249,2.192463 -7.5209,5.263438 -10.131681,9.061463 -3.47331,4.649744 -5.432699,10.599271 -6.481258,15.543237 2.437626,-3.919166 3.952025,-8.818238 7.418152,-11.909867 2.608012,-3.48802 5.851623,-6.374032 9.572025,-8.481136 0.08436,0.450285 0.178721,0.898611 0.294039,1.34307 0.950429,7.14741 4.460433,13.943766 9.667627,19.012276 2.050527,1.90711 4.336546,3.56151 6.779948,4.93717 -0.0278,2.25642 0.164355,4.51838 0.623218,6.74842 1.229061,8.15311 5.71855,15.768804 12.550138,20.464894 0.168462,0.12584 0.350168,0.23519 0.521932,0.35708 -1.844342,1.20167 -3.827133,2.19695 -5.899381,2.95124 -2.563083,0.94723 -5.021021,1.6063 -7.685319,1.89498 -3.216749,0.42577 -8.081638,-0.12394 -12.069031,-0.63149 2.492671,0.66311 7.269815,3.3294 16.526123,1.94769 4.08806,-0.75066 8.534412,-2.03159 12.215275,-4.2385 3.889584,2.09268 8.197703,3.40739 11.933639,4.19974 -3.145973,-1.95671 -6.908353,-3.33437 -9.875367,-5.58829 0.04476,-0.0348 0.09461,-0.0641 0.13901,-0.0992 5.755686,-3.37573 9.731577,-9.138764 12.232845,-15.222834 1.518346,-3.85722 2.581735,-8.12257 2.591056,-12.32793 4.006251,-2.19246 7.520891,-5.263435 10.131681,-9.06146 3.32047,-4.445124 5.24712,-10.068839 6.32726,-14.875577 0.61316,0.341699 1.22097,0.693633 1.818505,1.062467 5.63028,3.204927 9.85245,8.525452 12.05818,14.585156 0.94723,2.563078 1.60629,5.021534 1.89497,7.685834 0.42576,3.21675 -0.12394,8.08112 -0.63148,12.06852 0.6631,-2.49267 3.32938,-7.2693 1.94767,-16.52561 -0.90677,-4.938225 -2.56549,-10.416801 -5.72625,-14.412557 -3.37574,-5.755684 -9.13878,-9.731578 -15.222855,-12.232845 -5.5799,-2.196448 -12.013242,-3.443168 -17.884696,-1.91978 -4.164732,0.553807 -8.207331,1.981826 -11.861292,4.103109 -7.062789,-3.967795 -15.457171,-5.570808 -23.441463,-3.927926 -1.630935,0.24586 -3.238599,0.627613 -4.807459,1.127063 0.1127,-0.576391 0.248365,-1.152108 0.422197,-1.726509 0.863269,-4.968505 2.837954,-9.647594 5.474601,-13.919047 3.204927,-5.630275 8.525969,-9.852978 14.585673,-12.058696 2.563078,-0.947229 5.021022,-1.606295 7.685319,-1.894974 3.216747,-0.42577 8.081635,0.123936 12.069031,0.631486 -2.025292,-0.538777 -5.558421,-2.399973 -11.777059,-2.337842 z M 47.584176,48.928796 c 4.058698,0.11478 8.098646,0.953061 11.871626,2.460315 0.429017,0.188611 0.838984,0.388565 1.242302,0.592729 -0.990851,0.806143 -1.938357,1.666435 -2.829802,2.582271 -4.657746,5.008013 -7.836438,11.404356 -9.013403,18.132227 -1.553709,-1.165487 -2.940926,-2.44987 -4.287077,-3.798735 -2.074548,-2.589351 -4.962363,-5.065474 -5.833752,-8.374166 -1.246487,-3.186043 -2.177513,-6.543505 -2.300118,-9.936344 1.255246,-0.43908 2.548021,-0.80077 3.877799,-1.071769 2.395012,-0.463981 4.837206,-0.655395 7.272425,-0.586528 z m 33.844445,0.473357 c 1.699196,0.02196 3.403717,0.258619 5.096844,0.771012 4.20684,0.73093 8.20319,2.264851 11.92331,4.316532 -2.24505,3.816029 -3.78437,8.392041 -7.08639,11.337293 -2.60817,3.48821 -5.851367,6.375036 -9.572029,8.482169 -0.08438,-0.450454 -0.178678,-0.898963 -0.294038,-1.343587 -0.950424,-7.147408 -4.460435,-13.943766 -9.667627,-19.012276 -0.726647,-0.675824 -1.491387,-1.309316 -2.273247,-1.92133 0.301409,-0.117424 0.603056,-0.234136 0.918807,-0.317293 3.50447,-1.371066 7.21614,-2.360829 10.95437,-2.31252 z m -16.233117,5.484419 c 1.297806,1.03027 2.491209,2.13799 3.648873,3.29799 2.074549,2.589352 4.962371,5.065991 5.833752,8.374683 1.246556,3.186205 2.17759,6.543331 2.300118,9.936341 -1.255246,0.43908 -2.548021,0.80077 -3.877799,1.07177 -6.386708,1.23728 -13.107288,0.53782 -19.144052,-1.87378 -0.280535,-0.12334 -0.542994,-0.25751 -0.812353,-0.38758 0.375626,-2.864275 1.088067,-5.685535 2.160075,-8.368996 1.731097,-3.937577 4.141118,-6.739067 6.795967,-9.388575 1.026284,-0.822242 2.045815,-1.76029 3.095419,-2.661853 z M 52.854138,80.194076 c 6.00157,2.36459 12.619356,3.12578 18.980237,1.81694 1.630935,-0.24586 3.238599,-0.62761 4.807458,-1.12706 -0.1127,0.57639 -0.248364,1.1521 -0.422196,1.7265 -0.863263,4.96851 -2.837959,9.64758 -5.474601,13.91905 -1.601549,2.81353 -3.731799,5.275664 -6.218225,7.310144 -5.646838,-4.445654 -9.635492,-10.589604 -11.096481,-17.758604 -0.376002,-1.94087 -0.551596,-3.91301 -0.576192,-5.88697 z"
       inkscape:label="path3-4"
       sodipodi:insensitive="true" /></g></svg>
